<?xml version="1.0" encoding="UTF-8" standalone="no"?>
<svg
   xmlns:dc="http://purl.org/dc/elements/1.1/"
   xmlns:cc="http://creativecommons.org/ns#"
   xmlns:rdf="http://www.w3.org/1999/02/22-rdf-syntax-ns#"
   xmlns:svg="http://www.w3.org/2000/svg"
   xmlns="http://www.w3.org/2000/svg"
   xmlns:sodipodi="http://sodipodi.sourceforge.net/DTD/sodipodi-0.dtd"
   xmlns:inkscape="http://www.inkscape.org/namespaces/inkscape"
   version="1.1"
   id="Layer_1"
   x="0px"
   y="0px"
   width="300px"
   height="400px"
   viewBox="0 0 300 400"
   style="enable-background:new 0 0 300 550;"
   xml:space="preserve"
   inkscape:version="0.91 r13725"
   sodipodi:docname="streamsupport.svg"
   inkscape:export-filename="streamsupport.png"
   inkscape:export-xdpi="80"
   inkscape:export-ydpi="80"><metadata
     id="metadata23"><rdf:RDF><cc:Work
         rdf:about=""><dc:format>image/svg+xml</dc:format><dc:type
           rdf:resource="http://purl.org/dc/dcmitype/StillImage" /></cc:Work></rdf:RDF></metadata><defs
     id="defs21" /><sodipodi:namedview
     pagecolor="#ffffff"
     bordercolor="#666666"
     borderopacity="1"
     objecttolerance="10"
     gridtolerance="10"
     guidetolerance="10"
     inkscape:pageopacity="0"
     inkscape:pageshadow="2"
     inkscape:window-width="1855"
     inkscape:window-height="1056"
     id="namedview19"
     showgrid="false"
     inkscape:zoom="0.59"
     inkscape:cx="-828.65734"
     inkscape:cy="206.83224"
     inkscape:window-x="65"
     inkscape:window-y="24"
     inkscape:window-maximized="1"
     inkscape:current-layer="Layer_1" /><path
     style="fill:#e76f00"
     d="m -460.25403,44.322 c -17.896,-20.604 4.702,-39.1450003 4.702,-39.1450003 0,0 -45.441,23.4580003 -24.572,52.8330003 19.491,27.39401 34.438,41.005 -46.479,87.934 0,0 127.013,-31.722 66.349,-101.622"
     id="path7"
     inkscape:connector-curvature="0" /><g
     id="g8149"><path
       id="path3"
       d="M102.681,291.324c0,0-14.178,8.245,10.09,11.035c29.4,3.354,44.426,2.873,76.825-3.259  c0,0,8.518,5.341,20.414,9.967C137.38,340.195,45.634,307.264,102.681,291.324"
       style="fill:#5382A1;" /><path
       id="path5"
       d="M93.806,250.704c0,0-15.902,11.771,8.384,14.283c31.406,3.24,56.208,3.505,99.125-4.759  c0,0,5.936,6.018,15.27,9.309C128.771,295.215,30.962,271.562,93.806,250.704"
       style="fill:#5382A1;" /><path
       id="path9"
       d="M264.684,321.369c0,0,10.492,8.645-11.555,15.333c-41.923,12.7-174.488,16.535-211.314,0.506  c-13.238-5.759,11.587-13.751,19.396-15.428c8.144-1.766,12.798-1.437,12.798-1.437c-14.722-10.371-95.157,20.364-40.857,29.166  C181.236,373.524,303.095,338.695,264.684,321.369"
       style="fill:#5382A1;" /><path
       id="path11"
       d="M109.499,208.617c0,0-67.431,16.016-23.879,21.832c18.389,2.462,55.047,1.905,89.193-0.956  c27.906-2.354,55.927-7.359,55.927-7.359s-9.84,4.214-16.959,9.075c-68.475,18.009-200.756,9.631-162.674-8.79  C83.313,206.851,109.499,208.617,109.499,208.617"
       style="fill:#5382A1;" /><path
       id="path13"
       d="M230.462,276.231c69.608-36.171,37.424-70.931,14.96-66.248c-5.506,1.146-7.961,2.139-7.961,2.139  s2.044-3.202,5.948-4.588c44.441-15.624,78.619,46.081-14.346,70.52C229.063,278.055,230.14,277.092,230.462,276.231"
       style="fill:#5382A1;" /><path
       id="path15"
       d="M188.495,4.399c0,0,38.55,38.563-36.563,97.862c-60.233,47.568-13.735,74.69-0.025,105.678  c-35.159-31.722-60.961-59.647-43.651-85.637C133.663,84.151,204.049,65.654,188.495,4.399"
       style="fill:#E76F00;" /><path
       id="path17"
       d="M116.339,374.246c66.815,4.277,169.417-2.373,171.847-33.988c0,0-4.671,11.985-55.219,21.503  c-57.028,10.732-127.364,9.479-169.081,2.601C63.887,364.361,72.426,371.43,116.339,374.246"
       style="fill:#5382A1;" /><path
       id="path15-6"
       d="m 127.74176,5.0096603 c 0,0 -38.549994,38.5630007 36.563,97.8619997 60.233,47.568 13.735,74.69 0.025,105.678 35.159,-31.722 60.961,-59.647 43.651,-85.637 -25.407,-38.151 -95.79299,-56.648 -80.239,-117.9029997"
       style="fill:#e76f00"
       inkscape:connector-curvature="0" /></g><path
     style="fill:#e76f00"
     d="m -563.95032,45.03269 c 17.896,-20.604 -4.702,-39.1450003 -4.702,-39.1450003 0,0 45.441,23.4580003 24.572,52.8330003 -19.491,27.39401 -34.438,41.005 46.479,87.934 0,0 -127.013,-31.722 -66.349,-101.622"
     id="path7-2"
     inkscape:connector-curvature="0" /><path
     style="fill:#e76f00"
     d="m -461.71117,-48.54299 c -17.896,-20.604 4.702,-39.145 4.702,-39.145 0,0 -45.441,23.458 -24.572,52.833 19.491,27.3940097 34.438,41.0049997 -46.479,87.934 0,0 127.013,-31.722 66.349,-101.622"
     id="path7-0"
     inkscape:connector-curvature="0" /><path
     style="fill:#e76f00"
     d="m -565.40746,-47.8323 c 17.896,-20.604 -4.702,-39.145 -4.702,-39.145 0,0 45.441,23.458 24.572,52.833 -19.491,27.3940097 -34.438,41.0049997 46.479,87.934 0,0 -127.013,-31.722 -66.349,-101.622"
     id="path7-2-8"
     inkscape:connector-curvature="0" /><path
     style="fill:#e76f00"
     d="m -205.77897,106.17012 c -17.896,20.604 4.702,39.145 4.702,39.145 0,0 -45.441,-23.458 -24.572,-52.833 19.491,-27.39401 34.438,-41.005 -46.479,-87.9340003 0,0 127.013,31.7220003 66.349,101.6220003"
     id="path7-0-9"
     inkscape:connector-curvature="0" /><path
     style="fill:#e76f00"
     d="m -309.47526,105.45943 c 17.896,20.604 -4.702,39.145 -4.702,39.145 0,0 45.441,-23.458 24.572,-52.833 -19.491,-27.39401 -34.438,-41.005 46.479,-87.9340003 0,0 -127.013,31.7220003 -66.349,101.6220003"
     id="path7-2-8-9"
     inkscape:connector-curvature="0" /></svg>